<?xml version="1.0" encoding="utf-8" standalone="no"?>
<!DOCTYPE svg PUBLIC "-//W3C//DTD SVG 1.1//EN"
  "http://www.w3.org/Graphics/SVG/1.1/DTD/svg11.dtd">
<svg xmlns:xlink="http://www.w3.org/1999/xlink" width="1296pt" height="432pt" viewBox="0 0 1296 432" xmlns="http://www.w3.org/2000/svg" version="1.1">
 <metadata>
  <rdf:RDF xmlns:dc="http://purl.org/dc/elements/1.1/" xmlns:cc="http://creativecommons.org/ns#" xmlns:rdf="http://www.w3.org/1999/02/22-rdf-syntax-ns#">
   <cc:Work>
    <dc:type rdf:resource="http://purl.org/dc/dcmitype/StillImage"/>
    <dc:date>2024-10-27T21:31:58.059981</dc:date>
    <dc:format>image/svg+xml</dc:format>
    <dc:creator>
     <cc:Agent>
      <dc:title>Matplotlib v3.8.4, https://matplotlib.org/</dc:title>
     </cc:Agent>
    </dc:creator>
   </cc:Work>
  </rdf:RDF>
 </metadata>
 <defs>
  <style type="text/css">*{stroke-linejoin: round; stroke-linecap: butt}</style>
 </defs>
 <g id="figure_1">
  <g id="patch_1">
   <path d="M 0 432 
L 1296 432 
L 1296 0 
L 0 0 
z
" style="fill: #ffffff"/>
  </g>
  <g id="axes_1">
   <g id="patch_2">
    <path d="M 63.44 373.96 
L 425.82 373.96 
L 425.82 40.92 
L 63.44 40.92 
z
" style="fill: #ffffff"/>
   </g>
   <g id="PathCollection_1">
    <defs>
     <path id="m871fd13b0d" d="M 0 3 
C 0.795609 3 1.55874 2.683901 2.12132 2.12132 
C 2.683901 1.55874 3 0.795609 3 0 
C 3 -0.795609 2.683901 -1.55874 2.12132 -2.12132 
C 1.55874 -2.683901 0.795609 -3 0 -3 
C -0.795609 -3 -1.55874 -2.683901 -2.12132 -2.12132 
C -2.683901 -1.55874 -3 -0.795609 -3 0 
C -3 0.795609 -2.683901 1.55874 -2.12132 2.12132 
C -1.55874 2.683901 -0.795609 3 0 3 
z
" style="stroke: #008000"/>
    </defs>
    <g clip-path="url(#p92f4d9895f)">
     <use xlink:href="#m871fd13b0d" x="79.911818" y="297.87538" style="fill: #008000; stroke: #008000"/>
     <use xlink:href="#m871fd13b0d" x="101.874242" y="303.602802" style="fill: #008000; stroke: #008000"/>
     <use xlink:href="#m871fd13b0d" x="123.836667" y="309.684782" style="fill: #008000; stroke: #008000"/>
     <use xlink:href="#m871fd13b0d" x="145.799091" y="314.566752" style="fill: #008000; stroke: #008000"/>
     <use xlink:href="#m871fd13b0d" x="167.761515" y="319.603269" style="fill: #008000; stroke: #008000"/>
     <use xlink:href="#m871fd13b0d" x="189.723939" y="324.858011" style="fill: #008000; stroke: #008000"/>
     <use xlink:href="#m871fd13b0d" x="211.686364" y="330.903726" style="fill: #008000; stroke: #008000"/>
     <use xlink:href="#m871fd13b0d" x="233.648788" y="337.285838" style="fill: #008000; stroke: #008000"/>
     <use xlink:href="#m871fd13b0d" x="255.611212" y="340.358722" style="fill: #008000; stroke: #008000"/>
     <use xlink:href="#m871fd13b0d" x="277.573636" y="343.458861" style="fill: #008000; stroke: #008000"/>
     <use xlink:href="#m871fd13b0d" x="299.536061" y="347.177206" style="fill: #008000; stroke: #008000"/>
     <use xlink:href="#m871fd13b0d" x="321.498485" y="352.231918" style="fill: #008000; stroke: #008000"/>
     <use xlink:href="#m871fd13b0d" x="343.460909" y="357.950288" style="fill: #008000; stroke: #008000"/>
     <use xlink:href="#m871fd13b0d" x="365.423333" y="363.214131" style="fill: #008000; stroke: #008000"/>
     <use xlink:href="#m871fd13b0d" x="387.385758" y="366.086974" style="fill: #008000; stroke: #008000"/>
     <use xlink:href="#m871fd13b0d" x="409.348182" y="368.287057" style="fill: #008000; stroke: #008000"/>
    </g>
   </g>
   <g id="matplotlib.axis_1">
    <g id="xtick_1">
     <g id="line2d_1">
      <defs>
       <path id="m5e17f799ea" d="M 0 0 
L 0 3.5 
" style="stroke: #000000; stroke-width: 0.8"/>
      </defs>
      <g>
       <use xlink:href="#m5e17f799ea" x="79.911818" y="373.96" style="stroke: #000000; stroke-width: 0.8"/>
      </g>
     </g>
     <g id="text_1">
      <!-- 0 -->
      <g transform="translate(76.094318 390.078125) scale(0.12 -0.12)">
       <defs>
        <path id="DejaVuSans-30" d="M 2034 4250 
Q 1547 4250 1301 3770 
Q 1056 3291 1056 2328 
Q 1056 1369 1301 889 
Q 1547 409 2034 409 
Q 2525 409 2770 889 
Q 3016 1369 3016 2328 
Q 3016 3291 2770 3770 
Q 2525 4250 2034 4250 
z
M 2034 4750 
Q 2819 4750 3233 4129 
Q 3647 3509 3647 2328 
Q 3647 1150 3233 529 
Q 2819 -91 2034 -91 
Q 1250 -91 836 529 
Q 422 1150 422 2328 
Q 422 3509 836 4129 
Q 1250 4750 2034 4750 
z
" transform="scale(0.015625)"/>
       </defs>
       <use xlink:href="#DejaVuSans-30"/>
      </g>
     </g>
    </g>
    <g id="xtick_2">
     <g id="line2d_2">
      <g>
       <use xlink:href="#m5e17f799ea" x="134.817879" y="373.96" style="stroke: #000000; stroke-width: 0.8"/>
      </g>
     </g>
     <g id="text_2">
      <!-- 1 -->
      <g transform="translate(131.000379 390.078125) scale(0.12 -0.12)">
       <defs>
        <path id="DejaVuSans-31" d="M 794 531 
L 1825 531 
L 1825 4091 
L 703 3866 
L 703 4441 
L 1819 4666 
L 2450 4666 
L 2450 531 
L 3481 531 
L 3481 0 
L 794 0 
L 794 531 
z
" transform="scale(0.015625)"/>
       </defs>
       <use xlink:href="#DejaVuSans-31"/>
      </g>
     </g>
    </g>
    <g id="xtick_3">
     <g id="line2d_3">
      <g>
       <use xlink:href="#m5e17f799ea" x="189.723939" y="373.96" style="stroke: #000000; stroke-width: 0.8"/>
      </g>
     </g>
     <g id="text_3">
      <!-- 2 -->
      <g transform="translate(185.906439 390.078125) scale(0.12 -0.12)">
       <defs>
        <path id="DejaVuSans-32" d="M 1228 531 
L 3431 531 
L 3431 0 
L 469 0 
L 469 531 
Q 828 903 1448 1529 
Q 2069 2156 2228 2338 
Q 2531 2678 2651 2914 
Q 2772 3150 2772 3378 
Q 2772 3750 2511 3984 
Q 2250 4219 1831 4219 
Q 1534 4219 1204 4116 
Q 875 4013 500 3803 
L 500 4441 
Q 881 4594 1212 4672 
Q 1544 4750 1819 4750 
Q 2544 4750 2975 4387 
Q 3406 4025 3406 3419 
Q 3406 3131 3298 2873 
Q 3191 2616 2906 2266 
Q 2828 2175 2409 1742 
Q 1991 1309 1228 531 
z
" transform="scale(0.015625)"/>
       </defs>
       <use xlink:href="#DejaVuSans-32"/>
      </g>
     </g>
    </g>
    <g id="xtick_4">
     <g id="line2d_4">
      <g>
       <use xlink:href="#m5e17f799ea" x="244.63" y="373.96" style="stroke: #000000; stroke-width: 0.8"/>
      </g>
     </g>
     <g id="text_4">
      <!-- 3 -->
      <g transform="translate(240.8125 390.078125) scale(0.12 -0.12)">
       <defs>
        <path id="DejaVuSans-33" d="M 2597 2516 
Q 3050 2419 3304 2112 
Q 3559 1806 3559 1356 
Q 3559 666 3084 287 
Q 2609 -91 1734 -91 
Q 1441 -91 1130 -33 
Q 819 25 488 141 
L 488 750 
Q 750 597 1062 519 
Q 1375 441 1716 441 
Q 2309 441 2620 675 
Q 2931 909 2931 1356 
Q 2931 1769 2642 2001 
Q 2353 2234 1838 2234 
L 1294 2234 
L 1294 2753 
L 1863 2753 
Q 2328 2753 2575 2939 
Q 2822 3125 2822 3475 
Q 2822 3834 2567 4026 
Q 2313 4219 1838 4219 
Q 1578 4219 1281 4162 
Q 984 4106 628 3988 
L 628 4550 
Q 988 4650 1302 4700 
Q 1616 4750 1894 4750 
Q 2613 4750 3031 4423 
Q 3450 4097 3450 3541 
Q 3450 3153 3228 2886 
Q 3006 2619 2597 2516 
z
" transform="scale(0.015625)"/>
       </defs>
       <use xlink:href="#DejaVuSans-33"/>
      </g>
     </g>
    </g>
    <g id="xtick_5">
     <g id="line2d_5">
      <g>
       <use xlink:href="#m5e17f799ea" x="299.536061" y="373.96" style="stroke: #000000; stroke-width: 0.8"/>
      </g>
     </g>
     <g id="text_5">
      <!-- 4 -->
      <g transform="translate(295.718561 390.078125) scale(0.12 -0.12)">
       <defs>
        <path id="DejaVuSans-34" d="M 2419 4116 
L 825 1625 
L 2419 1625 
L 2419 4116 
z
M 2253 4666 
L 3047 4666 
L 3047 1625 
L 3713 1625 
L 3713 1100 
L 3047 1100 
L 3047 0 
L 2419 0 
L 2419 1100 
L 313 1100 
L 313 1709 
L 2253 4666 
z
" transform="scale(0.015625)"/>
       </defs>
       <use xlink:href="#DejaVuSans-34"/>
      </g>
     </g>
    </g>
    <g id="xtick_6">
     <g id="line2d_6">
      <g>
       <use xlink:href="#m5e17f799ea" x="354.442121" y="373.96" style="stroke: #000000; stroke-width: 0.8"/>
      </g>
     </g>
     <g id="text_6">
      <!-- 5 -->
      <g transform="translate(350.624621 390.078125) scale(0.12 -0.12)">
       <defs>
        <path id="DejaVuSans-35" d="M 691 4666 
L 3169 4666 
L 3169 4134 
L 1269 4134 
L 1269 2991 
Q 1406 3038 1543 3061 
Q 1681 3084 1819 3084 
Q 2600 3084 3056 2656 
Q 3513 2228 3513 1497 
Q 3513 744 3044 326 
Q 2575 -91 1722 -91 
Q 1428 -91 1123 -41 
Q 819 9 494 109 
L 494 744 
Q 775 591 1075 516 
Q 1375 441 1709 441 
Q 2250 441 2565 725 
Q 2881 1009 2881 1497 
Q 2881 1984 2565 2268 
Q 2250 2553 1709 2553 
Q 1456 2553 1204 2497 
Q 953 2441 691 2322 
L 691 4666 
z
" transform="scale(0.015625)"/>
       </defs>
       <use xlink:href="#DejaVuSans-35"/>
      </g>
     </g>
    </g>
    <g id="xtick_7">
     <g id="line2d_7">
      <g>
       <use xlink:href="#m5e17f799ea" x="409.348182" y="373.96" style="stroke: #000000; stroke-width: 0.8"/>
      </g>
     </g>
     <g id="text_7">
      <!-- 6 -->
      <g transform="translate(405.530682 390.078125) scale(0.12 -0.12)">
       <defs>
        <path id="DejaVuSans-36" d="M 2113 2584 
Q 1688 2584 1439 2293 
Q 1191 2003 1191 1497 
Q 1191 994 1439 701 
Q 1688 409 2113 409 
Q 2538 409 2786 701 
Q 3034 994 3034 1497 
Q 3034 2003 2786 2293 
Q 2538 2584 2113 2584 
z
M 3366 4563 
L 3366 3988 
Q 3128 4100 2886 4159 
Q 2644 4219 2406 4219 
Q 1781 4219 1451 3797 
Q 1122 3375 1075 2522 
Q 1259 2794 1537 2939 
Q 1816 3084 2150 3084 
Q 2853 3084 3261 2657 
Q 3669 2231 3669 1497 
Q 3669 778 3244 343 
Q 2819 -91 2113 -91 
Q 1303 -91 875 529 
Q 447 1150 447 2328 
Q 447 3434 972 4092 
Q 1497 4750 2381 4750 
Q 2619 4750 2861 4703 
Q 3103 4656 3366 4563 
z
" transform="scale(0.015625)"/>
       </defs>
       <use xlink:href="#DejaVuSans-36"/>
      </g>
     </g>
    </g>
    <g id="text_8">
     <!-- Bias Scaling Coefficient ($\lambda_1$) -->
     <g transform="translate(119.67 414.73375) scale(0.16 -0.16)">
      <defs>
       <path id="DejaVuSans-Bold-42" d="M 2456 2859 
Q 2741 2859 2887 2984 
Q 3034 3109 3034 3353 
Q 3034 3594 2887 3720 
Q 2741 3847 2456 3847 
L 1791 3847 
L 1791 2859 
L 2456 2859 
z
M 2497 819 
Q 2859 819 3042 972 
Q 3225 1125 3225 1434 
Q 3225 1738 3044 1889 
Q 2863 2041 2497 2041 
L 1791 2041 
L 1791 819 
L 2497 819 
z
M 3616 2497 
Q 4003 2384 4215 2081 
Q 4428 1778 4428 1338 
Q 4428 663 3972 331 
Q 3516 0 2584 0 
L 588 0 
L 588 4666 
L 2394 4666 
Q 3366 4666 3802 4372 
Q 4238 4078 4238 3431 
Q 4238 3091 4078 2852 
Q 3919 2613 3616 2497 
z
" transform="scale(0.015625)"/>
       <path id="DejaVuSans-Bold-69" d="M 538 3500 
L 1656 3500 
L 1656 0 
L 538 0 
L 538 3500 
z
M 538 4863 
L 1656 4863 
L 1656 3950 
L 538 3950 
L 538 4863 
z
" transform="scale(0.015625)"/>
       <path id="DejaVuSans-Bold-61" d="M 2106 1575 
Q 1756 1575 1579 1456 
Q 1403 1338 1403 1106 
Q 1403 894 1545 773 
Q 1688 653 1941 653 
Q 2256 653 2472 879 
Q 2688 1106 2688 1447 
L 2688 1575 
L 2106 1575 
z
M 3816 1997 
L 3816 0 
L 2688 0 
L 2688 519 
Q 2463 200 2181 54 
Q 1900 -91 1497 -91 
Q 953 -91 614 226 
Q 275 544 275 1050 
Q 275 1666 698 1953 
Q 1122 2241 2028 2241 
L 2688 2241 
L 2688 2328 
Q 2688 2594 2478 2717 
Q 2269 2841 1825 2841 
Q 1466 2841 1156 2769 
Q 847 2697 581 2553 
L 581 3406 
Q 941 3494 1303 3539 
Q 1666 3584 2028 3584 
Q 2975 3584 3395 3211 
Q 3816 2838 3816 1997 
z
" transform="scale(0.015625)"/>
       <path id="DejaVuSans-Bold-73" d="M 3272 3391 
L 3272 2541 
Q 2913 2691 2578 2766 
Q 2244 2841 1947 2841 
Q 1628 2841 1473 2761 
Q 1319 2681 1319 2516 
Q 1319 2381 1436 2309 
Q 1553 2238 1856 2203 
L 2053 2175 
Q 2913 2066 3209 1816 
Q 3506 1566 3506 1031 
Q 3506 472 3093 190 
Q 2681 -91 1863 -91 
Q 1516 -91 1145 -36 
Q 775 19 384 128 
L 384 978 
Q 719 816 1070 734 
Q 1422 653 1784 653 
Q 2113 653 2278 743 
Q 2444 834 2444 1013 
Q 2444 1163 2330 1236 
Q 2216 1309 1875 1350 
L 1678 1375 
Q 931 1469 631 1722 
Q 331 1975 331 2491 
Q 331 3047 712 3315 
Q 1094 3584 1881 3584 
Q 2191 3584 2531 3537 
Q 2872 3491 3272 3391 
z
" transform="scale(0.015625)"/>
       <path id="DejaVuSans-Bold-20" transform="scale(0.015625)"/>
       <path id="DejaVuSans-Bold-53" d="M 3834 4519 
L 3834 3531 
Q 3450 3703 3084 3790 
Q 2719 3878 2394 3878 
Q 1963 3878 1756 3759 
Q 1550 3641 1550 3391 
Q 1550 3203 1689 3098 
Q 1828 2994 2194 2919 
L 2706 2816 
Q 3484 2659 3812 2340 
Q 4141 2022 4141 1434 
Q 4141 663 3683 286 
Q 3225 -91 2284 -91 
Q 1841 -91 1394 -6 
Q 947 78 500 244 
L 500 1259 
Q 947 1022 1364 901 
Q 1781 781 2169 781 
Q 2563 781 2772 912 
Q 2981 1044 2981 1288 
Q 2981 1506 2839 1625 
Q 2697 1744 2272 1838 
L 1806 1941 
Q 1106 2091 782 2419 
Q 459 2747 459 3303 
Q 459 4000 909 4375 
Q 1359 4750 2203 4750 
Q 2588 4750 2994 4692 
Q 3400 4634 3834 4519 
z
" transform="scale(0.015625)"/>
       <path id="DejaVuSans-Bold-63" d="M 3366 3391 
L 3366 2478 
Q 3138 2634 2908 2709 
Q 2678 2784 2431 2784 
Q 1963 2784 1702 2511 
Q 1441 2238 1441 1747 
Q 1441 1256 1702 982 
Q 1963 709 2431 709 
Q 2694 709 2930 787 
Q 3166 866 3366 1019 
L 3366 103 
Q 3103 6 2833 -42 
Q 2563 -91 2291 -91 
Q 1344 -91 809 395 
Q 275 881 275 1747 
Q 275 2613 809 3098 
Q 1344 3584 2291 3584 
Q 2566 3584 2833 3536 
Q 3100 3488 3366 3391 
z
" transform="scale(0.015625)"/>
       <path id="DejaVuSans-Bold-6c" d="M 538 4863 
L 1656 4863 
L 1656 0 
L 538 0 
L 538 4863 
z
" transform="scale(0.015625)"/>
       <path id="DejaVuSans-Bold-6e" d="M 4056 2131 
L 4056 0 
L 2931 0 
L 2931 347 
L 2931 1631 
Q 2931 2084 2911 2256 
Q 2891 2428 2841 2509 
Q 2775 2619 2662 2680 
Q 2550 2741 2406 2741 
Q 2056 2741 1856 2470 
Q 1656 2200 1656 1722 
L 1656 0 
L 538 0 
L 538 3500 
L 1656 3500 
L 1656 2988 
Q 1909 3294 2193 3439 
Q 2478 3584 2822 3584 
Q 3428 3584 3742 3212 
Q 4056 2841 4056 2131 
z
" transform="scale(0.015625)"/>
       <path id="DejaVuSans-Bold-67" d="M 2919 594 
Q 2688 288 2409 144 
Q 2131 0 1766 0 
Q 1125 0 706 504 
Q 288 1009 288 1791 
Q 288 2575 706 3076 
Q 1125 3578 1766 3578 
Q 2131 3578 2409 3434 
Q 2688 3291 2919 2981 
L 2919 3500 
L 4044 3500 
L 4044 353 
Q 4044 -491 3511 -936 
Q 2978 -1381 1966 -1381 
Q 1638 -1381 1331 -1331 
Q 1025 -1281 716 -1178 
L 716 -306 
Q 1009 -475 1290 -558 
Q 1572 -641 1856 -641 
Q 2406 -641 2662 -400 
Q 2919 -159 2919 353 
L 2919 594 
z
M 2181 2772 
Q 1834 2772 1640 2515 
Q 1447 2259 1447 1791 
Q 1447 1309 1634 1061 
Q 1822 813 2181 813 
Q 2531 813 2725 1069 
Q 2919 1325 2919 1791 
Q 2919 2259 2725 2515 
Q 2531 2772 2181 2772 
z
" transform="scale(0.015625)"/>
       <path id="DejaVuSans-Bold-43" d="M 4288 256 
Q 3956 84 3597 -3 
Q 3238 -91 2847 -91 
Q 1681 -91 1000 561 
Q 319 1213 319 2328 
Q 319 3447 1000 4098 
Q 1681 4750 2847 4750 
Q 3238 4750 3597 4662 
Q 3956 4575 4288 4403 
L 4288 3438 
Q 3953 3666 3628 3772 
Q 3303 3878 2944 3878 
Q 2300 3878 1931 3465 
Q 1563 3053 1563 2328 
Q 1563 1606 1931 1193 
Q 2300 781 2944 781 
Q 3303 781 3628 887 
Q 3953 994 4288 1222 
L 4288 256 
z
" transform="scale(0.015625)"/>
       <path id="DejaVuSans-Bold-6f" d="M 2203 2784 
Q 1831 2784 1636 2517 
Q 1441 2250 1441 1747 
Q 1441 1244 1636 976 
Q 1831 709 2203 709 
Q 2569 709 2762 976 
Q 2956 1244 2956 1747 
Q 2956 2250 2762 2517 
Q 2569 2784 2203 2784 
z
M 2203 3584 
Q 3106 3584 3614 3096 
Q 4122 2609 4122 1747 
Q 4122 884 3614 396 
Q 3106 -91 2203 -91 
Q 1297 -91 786 396 
Q 275 884 275 1747 
Q 275 2609 786 3096 
Q 1297 3584 2203 3584 
z
" transform="scale(0.015625)"/>
       <path id="DejaVuSans-Bold-65" d="M 4031 1759 
L 4031 1441 
L 1416 1441 
Q 1456 1047 1700 850 
Q 1944 653 2381 653 
Q 2734 653 3104 758 
Q 3475 863 3866 1075 
L 3866 213 
Q 3469 63 3072 -14 
Q 2675 -91 2278 -91 
Q 1328 -91 801 392 
Q 275 875 275 1747 
Q 275 2603 792 3093 
Q 1309 3584 2216 3584 
Q 3041 3584 3536 3087 
Q 4031 2591 4031 1759 
z
M 2881 2131 
Q 2881 2450 2695 2645 
Q 2509 2841 2209 2841 
Q 1884 2841 1681 2658 
Q 1478 2475 1428 2131 
L 2881 2131 
z
" transform="scale(0.015625)"/>
       <path id="DejaVuSans-Bold-66" d="M 2841 4863 
L 2841 4128 
L 2222 4128 
Q 1984 4128 1890 4042 
Q 1797 3956 1797 3744 
L 1797 3500 
L 2753 3500 
L 2753 2700 
L 1797 2700 
L 1797 0 
L 678 0 
L 678 2700 
L 122 2700 
L 122 3500 
L 678 3500 
L 678 3744 
Q 678 4316 997 4589 
Q 1316 4863 1984 4863 
L 2841 4863 
z
" transform="scale(0.015625)"/>
       <path id="DejaVuSans-Bold-74" d="M 1759 4494 
L 1759 3500 
L 2913 3500 
L 2913 2700 
L 1759 2700 
L 1759 1216 
Q 1759 972 1856 886 
Q 1953 800 2241 800 
L 2816 800 
L 2816 0 
L 1856 0 
Q 1194 0 917 276 
Q 641 553 641 1216 
L 641 2700 
L 84 2700 
L 84 3500 
L 641 3500 
L 641 4494 
L 1759 4494 
z
" transform="scale(0.015625)"/>
       <path id="DejaVuSans-Bold-28" d="M 2413 -844 
L 1484 -844 
Q 1006 -72 778 623 
Q 550 1319 550 2003 
Q 550 2688 779 3389 
Q 1009 4091 1484 4856 
L 2413 4856 
Q 2013 4116 1813 3408 
Q 1613 2700 1613 2009 
Q 1613 1319 1811 609 
Q 2009 -100 2413 -844 
z
" transform="scale(0.015625)"/>
       <path id="DejaVuSans-Oblique-3bb" d="M 2350 4316 
L 3125 0 
L 2516 0 
L 2038 2588 
L 328 0 
L -281 0 
L 1903 3356 
L 1794 3975 
Q 1725 4369 1391 4369 
L 1091 4369 
L 1184 4863 
L 1550 4856 
Q 2253 4847 2350 4316 
z
" transform="scale(0.015625)"/>
       <path id="DejaVuSans-Bold-29" d="M 513 -844 
Q 913 -100 1113 609 
Q 1313 1319 1313 2009 
Q 1313 2700 1113 3408 
Q 913 4116 513 4856 
L 1441 4856 
Q 1916 4091 2145 3389 
Q 2375 2688 2375 2003 
Q 2375 1319 2147 623 
Q 1919 -72 1441 -844 
L 513 -844 
z
" transform="scale(0.015625)"/>
      </defs>
      <use xlink:href="#DejaVuSans-Bold-42" transform="translate(0 0.015625)"/>
      <use xlink:href="#DejaVuSans-Bold-69" transform="translate(76.220703 0.015625)"/>
      <use xlink:href="#DejaVuSans-Bold-61" transform="translate(110.498047 0.015625)"/>
      <use xlink:href="#DejaVuSans-Bold-73" transform="translate(177.978516 0.015625)"/>
      <use xlink:href="#DejaVuSans-Bold-20" transform="translate(237.5 0.015625)"/>
      <use xlink:href="#DejaVuSans-Bold-53" transform="translate(272.314453 0.015625)"/>
      <use xlink:href="#DejaVuSans-Bold-63" transform="translate(344.335938 0.015625)"/>
      <use xlink:href="#DejaVuSans-Bold-61" transform="translate(403.613281 0.015625)"/>
      <use xlink:href="#DejaVuSans-Bold-6c" transform="translate(471.09375 0.015625)"/>
      <use xlink:href="#DejaVuSans-Bold-69" transform="translate(505.371094 0.015625)"/>
      <use xlink:href="#DejaVuSans-Bold-6e" transform="translate(539.648438 0.015625)"/>
      <use xlink:href="#DejaVuSans-Bold-67" transform="translate(610.839844 0.015625)"/>
      <use xlink:href="#DejaVuSans-Bold-20" transform="translate(682.421875 0.015625)"/>
      <use xlink:href="#DejaVuSans-Bold-43" transform="translate(717.236328 0.015625)"/>
      <use xlink:href="#DejaVuSans-Bold-6f" transform="translate(790.625 0.015625)"/>
      <use xlink:href="#DejaVuSans-Bold-65" transform="translate(859.326172 0.015625)"/>
      <use xlink:href="#DejaVuSans-Bold-66" transform="translate(927.148438 0.015625)"/>
      <use xlink:href="#DejaVuSans-Bold-66" transform="translate(970.654297 0.015625)"/>
      <use xlink:href="#DejaVuSans-Bold-69" transform="translate(1014.160156 0.015625)"/>
      <use xlink:href="#DejaVuSans-Bold-63" transform="translate(1048.4375 0.015625)"/>
      <use xlink:href="#DejaVuSans-Bold-69" transform="translate(1107.714844 0.015625)"/>
      <use xlink:href="#DejaVuSans-Bold-65" transform="translate(1141.992188 0.015625)"/>
      <use xlink:href="#DejaVuSans-Bold-6e" transform="translate(1209.814453 0.015625)"/>
      <use xlink:href="#DejaVuSans-Bold-74" transform="translate(1281.005859 0.015625)"/>
      <use xlink:href="#DejaVuSans-Bold-20" transform="translate(1328.808594 0.015625)"/>
      <use xlink:href="#DejaVuSans-Bold-28" transform="translate(1363.623047 0.015625)"/>
      <use xlink:href="#DejaVuSans-Oblique-3bb" transform="translate(1409.326172 0.015625)"/>
      <use xlink:href="#DejaVuSans-31" transform="translate(1468.505859 -16.390625) scale(0.7)"/>
      <use xlink:href="#DejaVuSans-Bold-29" transform="translate(1515.776367 0.015625)"/>
     </g>
    </g>
   </g>
   <g id="matplotlib.axis_2">
    <g id="ytick_1">
     <g id="line2d_8">
      <defs>
       <path id="m122b06e141" d="M 0 0 
L -3.5 0 
" style="stroke: #000000; stroke-width: 0.8"/>
      </defs>
      <g>
       <use xlink:href="#m122b06e141" x="63.44" y="373.96" style="stroke: #000000; stroke-width: 0.8"/>
      </g>
     </g>
     <g id="text_9">
      <!-- 0.0 -->
      <g transform="translate(37.35625 378.519063) scale(0.12 -0.12)">
       <defs>
        <path id="DejaVuSans-2e" d="M 684 794 
L 1344 794 
L 1344 0 
L 684 0 
L 684 794 
z
" transform="scale(0.015625)"/>
       </defs>
       <use xlink:href="#DejaVuSans-30"/>
       <use xlink:href="#DejaVuSans-2e" x="63.623047"/>
       <use xlink:href="#DejaVuSans-30" x="95.410156"/>
      </g>
     </g>
    </g>
    <g id="ytick_2">
     <g id="line2d_9">
      <g>
       <use xlink:href="#m122b06e141" x="63.44" y="307.352" style="stroke: #000000; stroke-width: 0.8"/>
      </g>
     </g>
     <g id="text_10">
      <!-- 0.2 -->
      <g transform="translate(37.35625 311.911062) scale(0.12 -0.12)">
       <use xlink:href="#DejaVuSans-30"/>
       <use xlink:href="#DejaVuSans-2e" x="63.623047"/>
       <use xlink:href="#DejaVuSans-32" x="95.410156"/>
      </g>
     </g>
    </g>
    <g id="ytick_3">
     <g id="line2d_10">
      <g>
       <use xlink:href="#m122b06e141" x="63.44" y="240.744" style="stroke: #000000; stroke-width: 0.8"/>
      </g>
     </g>
     <g id="text_11">
      <!-- 0.4 -->
      <g transform="translate(37.35625 245.303062) scale(0.12 -0.12)">
       <use xlink:href="#DejaVuSans-30"/>
       <use xlink:href="#DejaVuSans-2e" x="63.623047"/>
       <use xlink:href="#DejaVuSans-34" x="95.410156"/>
      </g>
     </g>
    </g>
    <g id="ytick_4">
     <g id="line2d_11">
      <g>
       <use xlink:href="#m122b06e141" x="63.44" y="174.136" style="stroke: #000000; stroke-width: 0.8"/>
      </g>
     </g>
     <g id="text_12">
      <!-- 0.6 -->
      <g transform="translate(37.35625 178.695062) scale(0.12 -0.12)">
       <use xlink:href="#DejaVuSans-30"/>
       <use xlink:href="#DejaVuSans-2e" x="63.623047"/>
       <use xlink:href="#DejaVuSans-36" x="95.410156"/>
      </g>
     </g>
    </g>
    <g id="ytick_5">
     <g id="line2d_12">
      <g>
       <use xlink:href="#m122b06e141" x="63.44" y="107.528" style="stroke: #000000; stroke-width: 0.8"/>
      </g>
     </g>
     <g id="text_13">
      <!-- 0.8 -->
      <g transform="translate(37.35625 112.087062) scale(0.12 -0.12)">
       <defs>
        <path id="DejaVuSans-38" d="M 2034 2216 
Q 1584 2216 1326 1975 
Q 1069 1734 1069 1313 
Q 1069 891 1326 650 
Q 1584 409 2034 409 
Q 2484 409 2743 651 
Q 3003 894 3003 1313 
Q 3003 1734 2745 1975 
Q 2488 2216 2034 2216 
z
M 1403 2484 
Q 997 2584 770 2862 
Q 544 3141 544 3541 
Q 544 4100 942 4425 
Q 1341 4750 2034 4750 
Q 2731 4750 3128 4425 
Q 3525 4100 3525 3541 
Q 3525 3141 3298 2862 
Q 3072 2584 2669 2484 
Q 3125 2378 3379 2068 
Q 3634 1759 3634 1313 
Q 3634 634 3220 271 
Q 2806 -91 2034 -91 
Q 1263 -91 848 271 
Q 434 634 434 1313 
Q 434 1759 690 2068 
Q 947 2378 1403 2484 
z
M 1172 3481 
Q 1172 3119 1398 2916 
Q 1625 2713 2034 2713 
Q 2441 2713 2670 2916 
Q 2900 3119 2900 3481 
Q 2900 3844 2670 4047 
Q 2441 4250 2034 4250 
Q 1625 4250 1398 4047 
Q 1172 3844 1172 3481 
z
" transform="scale(0.015625)"/>
       </defs>
       <use xlink:href="#DejaVuSans-30"/>
       <use xlink:href="#DejaVuSans-2e" x="63.623047"/>
       <use xlink:href="#DejaVuSans-38" x="95.410156"/>
      </g>
     </g>
    </g>
    <g id="ytick_6">
     <g id="line2d_13">
      <g>
       <use xlink:href="#m122b06e141" x="63.44" y="40.92" style="stroke: #000000; stroke-width: 0.8"/>
      </g>
     </g>
     <g id="text_14">
      <!-- 1.0 -->
      <g transform="translate(37.35625 45.479062) scale(0.12 -0.12)">
       <use xlink:href="#DejaVuSans-31"/>
       <use xlink:href="#DejaVuSans-2e" x="63.623047"/>
       <use xlink:href="#DejaVuSans-30" x="95.410156"/>
      </g>
     </g>
    </g>
    <g id="text_15">
     <!-- Statistical Parity Difference (↓) -->
     <g transform="translate(23.90375 349.35625) rotate(-90) scale(0.16 -0.16)">
      <defs>
       <path id="DejaVuSans-Bold-50" d="M 588 4666 
L 2584 4666 
Q 3475 4666 3951 4270 
Q 4428 3875 4428 3144 
Q 4428 2409 3951 2014 
Q 3475 1619 2584 1619 
L 1791 1619 
L 1791 0 
L 588 0 
L 588 4666 
z
M 1791 3794 
L 1791 2491 
L 2456 2491 
Q 2806 2491 2997 2661 
Q 3188 2831 3188 3144 
Q 3188 3456 2997 3625 
Q 2806 3794 2456 3794 
L 1791 3794 
z
" transform="scale(0.015625)"/>
       <path id="DejaVuSans-Bold-72" d="M 3138 2547 
Q 2991 2616 2845 2648 
Q 2700 2681 2553 2681 
Q 2122 2681 1889 2404 
Q 1656 2128 1656 1613 
L 1656 0 
L 538 0 
L 538 3500 
L 1656 3500 
L 1656 2925 
Q 1872 3269 2151 3426 
Q 2431 3584 2822 3584 
Q 2878 3584 2943 3579 
Q 3009 3575 3134 3559 
L 3138 2547 
z
" transform="scale(0.015625)"/>
       <path id="DejaVuSans-Bold-79" d="M 78 3500 
L 1197 3500 
L 2138 1125 
L 2938 3500 
L 4056 3500 
L 2584 -331 
Q 2363 -916 2067 -1148 
Q 1772 -1381 1288 -1381 
L 641 -1381 
L 641 -647 
L 991 -647 
Q 1275 -647 1404 -556 
Q 1534 -466 1606 -231 
L 1638 -134 
L 78 3500 
z
" transform="scale(0.015625)"/>
       <path id="DejaVuSans-Bold-44" d="M 1791 3756 
L 1791 909 
L 2222 909 
Q 2959 909 3348 1275 
Q 3738 1641 3738 2338 
Q 3738 3031 3350 3393 
Q 2963 3756 2222 3756 
L 1791 3756 
z
M 588 4666 
L 1856 4666 
Q 2919 4666 3439 4514 
Q 3959 4363 4331 4000 
Q 4659 3684 4818 3271 
Q 4978 2859 4978 2338 
Q 4978 1809 4818 1395 
Q 4659 981 4331 666 
Q 3956 303 3431 151 
Q 2906 0 1856 0 
L 588 0 
L 588 4666 
z
" transform="scale(0.015625)"/>
       <path id="DejaVuSans-Bold-2193" d="M 2903 -22 
L 2466 -22 
L 1238 1206 
L 1691 1659 
L 2309 1041 
L 2309 4666 
L 3059 4666 
L 3059 1041 
L 3678 1659 
L 4131 1206 
L 2903 -22 
z
" transform="scale(0.015625)"/>
      </defs>
      <use xlink:href="#DejaVuSans-Bold-53"/>
      <use xlink:href="#DejaVuSans-Bold-74" x="72.021484"/>
      <use xlink:href="#DejaVuSans-Bold-61" x="119.824219"/>
      <use xlink:href="#DejaVuSans-Bold-74" x="187.304688"/>
      <use xlink:href="#DejaVuSans-Bold-69" x="235.107422"/>
      <use xlink:href="#DejaVuSans-Bold-73" x="269.384766"/>
      <use xlink:href="#DejaVuSans-Bold-74" x="328.90625"/>
      <use xlink:href="#DejaVuSans-Bold-69" x="376.708984"/>
      <use xlink:href="#DejaVuSans-Bold-63" x="410.986328"/>
      <use xlink:href="#DejaVuSans-Bold-61" x="470.263672"/>
      <use xlink:href="#DejaVuSans-Bold-6c" x="537.744141"/>
      <use xlink:href="#DejaVuSans-Bold-20" x="572.021484"/>
      <use xlink:href="#DejaVuSans-Bold-50" x="606.835938"/>
      <use xlink:href="#DejaVuSans-Bold-61" x="677.501953"/>
      <use xlink:href="#DejaVuSans-Bold-72" x="744.982422"/>
      <use xlink:href="#DejaVuSans-Bold-69" x="794.298828"/>
      <use xlink:href="#DejaVuSans-Bold-74" x="828.576172"/>
      <use xlink:href="#DejaVuSans-Bold-79" x="876.378906"/>
      <use xlink:href="#DejaVuSans-Bold-20" x="941.564453"/>
      <use xlink:href="#DejaVuSans-Bold-44" x="976.378906"/>
      <use xlink:href="#DejaVuSans-Bold-69" x="1059.386719"/>
      <use xlink:href="#DejaVuSans-Bold-66" x="1093.664062"/>
      <use xlink:href="#DejaVuSans-Bold-66" x="1137.169922"/>
      <use xlink:href="#DejaVuSans-Bold-65" x="1180.675781"/>
      <use xlink:href="#DejaVuSans-Bold-72" x="1248.498047"/>
      <use xlink:href="#DejaVuSans-Bold-65" x="1297.814453"/>
      <use xlink:href="#DejaVuSans-Bold-6e" x="1365.636719"/>
      <use xlink:href="#DejaVuSans-Bold-63" x="1436.828125"/>
      <use xlink:href="#DejaVuSans-Bold-65" x="1496.105469"/>
      <use xlink:href="#DejaVuSans-Bold-20" x="1563.927734"/>
      <use xlink:href="#DejaVuSans-Bold-28" x="1598.742188"/>
      <use xlink:href="#DejaVuSans-Bold-2193" x="1644.445312"/>
      <use xlink:href="#DejaVuSans-Bold-29" x="1728.234375"/>
     </g>
    </g>
   </g>
   <g id="patch_3">
    <path d="M 63.44 373.96 
L 63.44 40.92 
" style="fill: none; stroke: #000000; stroke-width: 0.8; stroke-linejoin: miter; stroke-linecap: square"/>
   </g>
   <g id="patch_4">
    <path d="M 425.82 373.96 
L 425.82 40.92 
" style="fill: none; stroke: #000000; stroke-width: 0.8; stroke-linejoin: miter; stroke-linecap: square"/>
   </g>
   <g id="patch_5">
    <path d="M 63.44 373.96 
L 425.82 373.96 
" style="fill: none; stroke: #000000; stroke-width: 0.8; stroke-linejoin: miter; stroke-linecap: square"/>
   </g>
   <g id="patch_6">
    <path d="M 63.44 40.92 
L 425.82 40.92 
" style="fill: none; stroke: #000000; stroke-width: 0.8; stroke-linejoin: miter; stroke-linecap: square"/>
   </g>
   <g id="text_16">
    <!-- $\lambda_1$ vs Statistical Parity Difference -->
    <g transform="translate(76.51 25.92) scale(0.18 -0.18)">
     <defs>
      <path id="DejaVuSans-Bold-76" d="M 97 3500 
L 1216 3500 
L 2088 1081 
L 2956 3500 
L 4078 3500 
L 2700 0 
L 1472 0 
L 97 3500 
z
" transform="scale(0.015625)"/>
     </defs>
     <use xlink:href="#DejaVuSans-Oblique-3bb" transform="translate(0 0.015625)"/>
     <use xlink:href="#DejaVuSans-31" transform="translate(59.179688 -16.390625) scale(0.7)"/>
     <use xlink:href="#DejaVuSans-Bold-20" transform="translate(106.450195 0.015625)"/>
     <use xlink:href="#DejaVuSans-Bold-76" transform="translate(141.264648 0.015625)"/>
     <use xlink:href="#DejaVuSans-Bold-73" transform="translate(206.450195 0.015625)"/>
     <use xlink:href="#DejaVuSans-Bold-20" transform="translate(265.97168 0.015625)"/>
     <use xlink:href="#DejaVuSans-Bold-53" transform="translate(300.786133 0.015625)"/>
     <use xlink:href="#DejaVuSans-Bold-74" transform="translate(372.807617 0.015625)"/>
     <use xlink:href="#DejaVuSans-Bold-61" transform="translate(420.610352 0.015625)"/>
     <use xlink:href="#DejaVuSans-Bold-74" transform="translate(488.09082 0.015625)"/>
     <use xlink:href="#DejaVuSans-Bold-69" transform="translate(535.893555 0.015625)"/>
     <use xlink:href="#DejaVuSans-Bold-73" transform="translate(570.170898 0.015625)"/>
     <use xlink:href="#DejaVuSans-Bold-74" transform="translate(629.692383 0.015625)"/>
     <use xlink:href="#DejaVuSans-Bold-69" transform="translate(677.495117 0.015625)"/>
     <use xlink:href="#DejaVuSans-Bold-63" transform="translate(711.772461 0.015625)"/>
     <use xlink:href="#DejaVuSans-Bold-61" transform="translate(771.049805 0.015625)"/>
     <use xlink:href="#DejaVuSans-Bold-6c" transform="translate(838.530273 0.015625)"/>
     <use xlink:href="#DejaVuSans-Bold-20" transform="translate(872.807617 0.015625)"/>
     <use xlink:href="#DejaVuSans-Bold-50" transform="translate(907.62207 0.015625)"/>
     <use xlink:href="#DejaVuSans-Bold-61" transform="translate(980.913086 0.015625)"/>
     <use xlink:href="#DejaVuSans-Bold-72" transform="translate(1048.393555 0.015625)"/>
     <use xlink:href="#DejaVuSans-Bold-69" transform="translate(1097.709961 0.015625)"/>
     <use xlink:href="#DejaVuSans-Bold-74" transform="translate(1131.987305 0.015625)"/>
     <use xlink:href="#DejaVuSans-Bold-79" transform="translate(1179.790039 0.015625)"/>
     <use xlink:href="#DejaVuSans-Bold-20" transform="translate(1244.975586 0.015625)"/>
     <use xlink:href="#DejaVuSans-Bold-44" transform="translate(1279.790039 0.015625)"/>
     <use xlink:href="#DejaVuSans-Bold-69" transform="translate(1362.797852 0.015625)"/>
     <use xlink:href="#DejaVuSans-Bold-66" transform="translate(1397.075195 0.015625)"/>
     <use xlink:href="#DejaVuSans-Bold-66" transform="translate(1440.581055 0.015625)"/>
     <use xlink:href="#DejaVuSans-Bold-65" transform="translate(1484.086914 0.015625)"/>
     <use xlink:href="#DejaVuSans-Bold-72" transform="translate(1551.90918 0.015625)"/>
     <use xlink:href="#DejaVuSans-Bold-65" transform="translate(1601.225586 0.015625)"/>
     <use xlink:href="#DejaVuSans-Bold-6e" transform="translate(1669.047852 0.015625)"/>
     <use xlink:href="#DejaVuSans-Bold-63" transform="translate(1740.239258 0.015625)"/>
     <use xlink:href="#DejaVuSans-Bold-65" transform="translate(1799.516602 0.015625)"/>
    </g>
   </g>
  </g>
  <g id="axes_2">
   <g id="patch_7">
    <path d="M 493.13 373.96 
L 855.51 373.96 
L 855.51 40.92 
L 493.13 40.92 
z
" style="fill: #ffffff"/>
   </g>
   <g id="PathCollection_2">
    <defs>
     <path id="m4e27aa828d" d="M 0 3 
C 0.795609 3 1.55874 2.683901 2.12132 2.12132 
C 2.683901 1.55874 3 0.795609 3 0 
C 3 -0.795609 2.683901 -1.55874 2.12132 -2.12132 
C 1.55874 -2.683901 0.795609 -3 0 -3 
C -0.795609 -3 -1.55874 -2.683901 -2.12132 -2.12132 
C -2.683901 -1.55874 -3 -0.795609 -3 0 
C -3 0.795609 -2.683901 1.55874 -2.12132 2.12132 
C -1.55874 2.683901 -0.795609 3 0 3 
z
" style="stroke: #800080"/>
    </defs>
    <g clip-path="url(#p9a7c22a669)">
     <use xlink:href="#m4e27aa828d" x="509.601818" y="249.43706" style="fill: #800080; stroke: #800080"/>
     <use xlink:href="#m4e27aa828d" x="531.564242" y="256.819188" style="fill: #800080; stroke: #800080"/>
     <use xlink:href="#m4e27aa828d" x="553.526667" y="264.946753" style="fill: #800080; stroke: #800080"/>
     <use xlink:href="#m4e27aa828d" x="575.489091" y="271.874291" style="fill: #800080; stroke: #800080"/>
     <use xlink:href="#m4e27aa828d" x="597.451515" y="278.510896" style="fill: #800080; stroke: #800080"/>
     <use xlink:href="#m4e27aa828d" x="619.413939" y="287.056676" style="fill: #800080; stroke: #800080"/>
     <use xlink:href="#m4e27aa828d" x="641.376364" y="296.057012" style="fill: #800080; stroke: #800080"/>
     <use xlink:href="#m4e27aa828d" x="663.338788" y="306.293772" style="fill: #800080; stroke: #800080"/>
     <use xlink:href="#m4e27aa828d" x="685.301212" y="311.130312" style="fill: #800080; stroke: #800080"/>
     <use xlink:href="#m4e27aa828d" x="707.263636" y="316.748704" style="fill: #800080; stroke: #800080"/>
     <use xlink:href="#m4e27aa828d" x="729.226061" y="323.494425" style="fill: #800080; stroke: #800080"/>
     <use xlink:href="#m4e27aa828d" x="751.188485" y="332.540238" style="fill: #800080; stroke: #800080"/>
     <use xlink:href="#m4e27aa828d" x="773.150909" y="343.586119" style="fill: #800080; stroke: #800080"/>
     <use xlink:href="#m4e27aa828d" x="795.113333" y="354.322883" style="fill: #800080; stroke: #800080"/>
     <use xlink:href="#m4e27aa828d" x="817.075758" y="359.65036" style="fill: #800080; stroke: #800080"/>
     <use xlink:href="#m4e27aa828d" x="839.038182" y="363.723243" style="fill: #800080; stroke: #800080"/>
    </g>
   </g>
   <g id="matplotlib.axis_3">
    <g id="xtick_8">
     <g id="line2d_14">
      <g>
       <use xlink:href="#m5e17f799ea" x="509.601818" y="373.96" style="stroke: #000000; stroke-width: 0.8"/>
      </g>
     </g>
     <g id="text_17">
      <!-- 0 -->
      <g transform="translate(505.784318 390.078125) scale(0.12 -0.12)">
       <use xlink:href="#DejaVuSans-30"/>
      </g>
     </g>
    </g>
    <g id="xtick_9">
     <g id="line2d_15">
      <g>
       <use xlink:href="#m5e17f799ea" x="564.507879" y="373.96" style="stroke: #000000; stroke-width: 0.8"/>
      </g>
     </g>
     <g id="text_18">
      <!-- 1 -->
      <g transform="translate(560.690379 390.078125) scale(0.12 -0.12)">
       <use xlink:href="#DejaVuSans-31"/>
      </g>
     </g>
    </g>
    <g id="xtick_10">
     <g id="line2d_16">
      <g>
       <use xlink:href="#m5e17f799ea" x="619.413939" y="373.96" style="stroke: #000000; stroke-width: 0.8"/>
      </g>
     </g>
     <g id="text_19">
      <!-- 2 -->
      <g transform="translate(615.596439 390.078125) scale(0.12 -0.12)">
       <use xlink:href="#DejaVuSans-32"/>
      </g>
     </g>
    </g>
    <g id="xtick_11">
     <g id="line2d_17">
      <g>
       <use xlink:href="#m5e17f799ea" x="674.32" y="373.96" style="stroke: #000000; stroke-width: 0.8"/>
      </g>
     </g>
     <g id="text_20">
      <!-- 3 -->
      <g transform="translate(670.5025 390.078125) scale(0.12 -0.12)">
       <use xlink:href="#DejaVuSans-33"/>
      </g>
     </g>
    </g>
    <g id="xtick_12">
     <g id="line2d_18">
      <g>
       <use xlink:href="#m5e17f799ea" x="729.226061" y="373.96" style="stroke: #000000; stroke-width: 0.8"/>
      </g>
     </g>
     <g id="text_21">
      <!-- 4 -->
      <g transform="translate(725.408561 390.078125) scale(0.12 -0.12)">
       <use xlink:href="#DejaVuSans-34"/>
      </g>
     </g>
    </g>
    <g id="xtick_13">
     <g id="line2d_19">
      <g>
       <use xlink:href="#m5e17f799ea" x="784.132121" y="373.96" style="stroke: #000000; stroke-width: 0.8"/>
      </g>
     </g>
     <g id="text_22">
      <!-- 5 -->
      <g transform="translate(780.314621 390.078125) scale(0.12 -0.12)">
       <use xlink:href="#DejaVuSans-35"/>
      </g>
     </g>
    </g>
    <g id="xtick_14">
     <g id="line2d_20">
      <g>
       <use xlink:href="#m5e17f799ea" x="839.038182" y="373.96" style="stroke: #000000; stroke-width: 0.8"/>
      </g>
     </g>
     <g id="text_23">
      <!-- 6 -->
      <g transform="translate(835.220682 390.078125) scale(0.12 -0.12)">
       <use xlink:href="#DejaVuSans-36"/>
      </g>
     </g>
    </g>
    <g id="text_24">
     <!-- Bias Scaling Coefficient ($\lambda_1$) -->
     <g transform="translate(549.36 414.73375) scale(0.16 -0.16)">
      <use xlink:href="#DejaVuSans-Bold-42" transform="translate(0 0.015625)"/>
      <use xlink:href="#DejaVuSans-Bold-69" transform="translate(76.220703 0.015625)"/>
      <use xlink:href="#DejaVuSans-Bold-61" transform="translate(110.498047 0.015625)"/>
      <use xlink:href="#DejaVuSans-Bold-73" transform="translate(177.978516 0.015625)"/>
      <use xlink:href="#DejaVuSans-Bold-20" transform="translate(237.5 0.015625)"/>
      <use xlink:href="#DejaVuSans-Bold-53" transform="translate(272.314453 0.015625)"/>
      <use xlink:href="#DejaVuSans-Bold-63" transform="translate(344.335938 0.015625)"/>
      <use xlink:href="#DejaVuSans-Bold-61" transform="translate(403.613281 0.015625)"/>
      <use xlink:href="#DejaVuSans-Bold-6c" transform="translate(471.09375 0.015625)"/>
      <use xlink:href="#DejaVuSans-Bold-69" transform="translate(505.371094 0.015625)"/>
      <use xlink:href="#DejaVuSans-Bold-6e" transform="translate(539.648438 0.015625)"/>
      <use xlink:href="#DejaVuSans-Bold-67" transform="translate(610.839844 0.015625)"/>
      <use xlink:href="#DejaVuSans-Bold-20" transform="translate(682.421875 0.015625)"/>
      <use xlink:href="#DejaVuSans-Bold-43" transform="translate(717.236328 0.015625)"/>
      <use xlink:href="#DejaVuSans-Bold-6f" transform="translate(790.625 0.015625)"/>
      <use xlink:href="#DejaVuSans-Bold-65" transform="translate(859.326172 0.015625)"/>
      <use xlink:href="#DejaVuSans-Bold-66" transform="translate(927.148438 0.015625)"/>
      <use xlink:href="#DejaVuSans-Bold-66" transform="translate(970.654297 0.015625)"/>
      <use xlink:href="#DejaVuSans-Bold-69" transform="translate(1014.160156 0.015625)"/>
      <use xlink:href="#DejaVuSans-Bold-63" transform="translate(1048.4375 0.015625)"/>
      <use xlink:href="#DejaVuSans-Bold-69" transform="translate(1107.714844 0.015625)"/>
      <use xlink:href="#DejaVuSans-Bold-65" transform="translate(1141.992188 0.015625)"/>
      <use xlink:href="#DejaVuSans-Bold-6e" transform="translate(1209.814453 0.015625)"/>
      <use xlink:href="#DejaVuSans-Bold-74" transform="translate(1281.005859 0.015625)"/>
      <use xlink:href="#DejaVuSans-Bold-20" transform="translate(1328.808594 0.015625)"/>
      <use xlink:href="#DejaVuSans-Bold-28" transform="translate(1363.623047 0.015625)"/>
      <use xlink:href="#DejaVuSans-Oblique-3bb" transform="translate(1409.326172 0.015625)"/>
      <use xlink:href="#DejaVuSans-31" transform="translate(1468.505859 -16.390625) scale(0.7)"/>
      <use xlink:href="#DejaVuSans-Bold-29" transform="translate(1515.776367 0.015625)"/>
     </g>
    </g>
   </g>
   <g id="matplotlib.axis_4">
    <g id="ytick_7">
     <g id="line2d_21">
      <g>
       <use xlink:href="#m122b06e141" x="493.13" y="373.96" style="stroke: #000000; stroke-width: 0.8"/>
      </g>
     </g>
     <g id="text_25">
      <!-- 0.0 -->
      <g transform="translate(467.04625 378.519063) scale(0.12 -0.12)">
       <use xlink:href="#DejaVuSans-30"/>
       <use xlink:href="#DejaVuSans-2e" x="63.623047"/>
       <use xlink:href="#DejaVuSans-30" x="95.410156"/>
      </g>
     </g>
    </g>
    <g id="ytick_8">
     <g id="line2d_22">
      <g>
       <use xlink:href="#m122b06e141" x="493.13" y="307.352" style="stroke: #000000; stroke-width: 0.8"/>
      </g>
     </g>
     <g id="text_26">
      <!-- 0.2 -->
      <g transform="translate(467.04625 311.911062) scale(0.12 -0.12)">
       <use xlink:href="#DejaVuSans-30"/>
       <use xlink:href="#DejaVuSans-2e" x="63.623047"/>
       <use xlink:href="#DejaVuSans-32" x="95.410156"/>
      </g>
     </g>
    </g>
    <g id="ytick_9">
     <g id="line2d_23">
      <g>
       <use xlink:href="#m122b06e141" x="493.13" y="240.744" style="stroke: #000000; stroke-width: 0.8"/>
      </g>
     </g>
     <g id="text_27">
      <!-- 0.4 -->
      <g transform="translate(467.04625 245.303062) scale(0.12 -0.12)">
       <use xlink:href="#DejaVuSans-30"/>
       <use xlink:href="#DejaVuSans-2e" x="63.623047"/>
       <use xlink:href="#DejaVuSans-34" x="95.410156"/>
      </g>
     </g>
    </g>
    <g id="ytick_10">
     <g id="line2d_24">
      <g>
       <use xlink:href="#m122b06e141" x="493.13" y="174.136" style="stroke: #000000; stroke-width: 0.8"/>
      </g>
     </g>
     <g id="text_28">
      <!-- 0.6 -->
      <g transform="translate(467.04625 178.695062) scale(0.12 -0.12)">
       <use xlink:href="#DejaVuSans-30"/>
       <use xlink:href="#DejaVuSans-2e" x="63.623047"/>
       <use xlink:href="#DejaVuSans-36" x="95.410156"/>
      </g>
     </g>
    </g>
    <g id="ytick_11">
     <g id="line2d_25">
      <g>
       <use xlink:href="#m122b06e141" x="493.13" y="107.528" style="stroke: #000000; stroke-width: 0.8"/>
      </g>
     </g>
     <g id="text_29">
      <!-- 0.8 -->
      <g transform="translate(467.04625 112.087062) scale(0.12 -0.12)">
       <use xlink:href="#DejaVuSans-30"/>
       <use xlink:href="#DejaVuSans-2e" x="63.623047"/>
       <use xlink:href="#DejaVuSans-38" x="95.410156"/>
      </g>
     </g>
    </g>
    <g id="ytick_12">
     <g id="line2d_26">
      <g>
       <use xlink:href="#m122b06e141" x="493.13" y="40.92" style="stroke: #000000; stroke-width: 0.8"/>
      </g>
     </g>
     <g id="text_30">
      <!-- 1.0 -->
      <g transform="translate(467.04625 45.479062) scale(0.12 -0.12)">
       <use xlink:href="#DejaVuSans-31"/>
       <use xlink:href="#DejaVuSans-2e" x="63.623047"/>
       <use xlink:href="#DejaVuSans-30" x="95.410156"/>
      </g>
     </g>
    </g>
    <g id="text_31">
     <!-- Equality of Opportunity (↓) -->
     <g transform="translate(453.59375 330.28625) rotate(-90) scale(0.16 -0.16)">
      <defs>
       <path id="DejaVuSans-Bold-45" d="M 588 4666 
L 3834 4666 
L 3834 3756 
L 1791 3756 
L 1791 2888 
L 3713 2888 
L 3713 1978 
L 1791 1978 
L 1791 909 
L 3903 909 
L 3903 0 
L 588 0 
L 588 4666 
z
" transform="scale(0.015625)"/>
       <path id="DejaVuSans-Bold-71" d="M 2181 2772 
Q 1825 2772 1636 2509 
Q 1447 2247 1447 1747 
Q 1447 1247 1636 984 
Q 1825 722 2181 722 
Q 2541 722 2730 984 
Q 2919 1247 2919 1747 
Q 2919 2247 2730 2509 
Q 2541 2772 2181 2772 
z
M 2919 506 
Q 2688 197 2409 53 
Q 2131 -91 1766 -91 
Q 1119 -91 703 423 
Q 288 938 288 1747 
Q 288 2556 703 3067 
Q 1119 3578 1766 3578 
Q 2131 3578 2409 3434 
Q 2688 3291 2919 2981 
L 2919 3500 
L 4044 3500 
L 4044 -1331 
L 2919 -1331 
L 2919 506 
z
" transform="scale(0.015625)"/>
       <path id="DejaVuSans-Bold-75" d="M 500 1363 
L 500 3500 
L 1625 3500 
L 1625 3150 
Q 1625 2866 1622 2436 
Q 1619 2006 1619 1863 
Q 1619 1441 1641 1255 
Q 1663 1069 1716 984 
Q 1784 875 1895 815 
Q 2006 756 2150 756 
Q 2500 756 2700 1025 
Q 2900 1294 2900 1772 
L 2900 3500 
L 4019 3500 
L 4019 0 
L 2900 0 
L 2900 506 
Q 2647 200 2364 54 
Q 2081 -91 1741 -91 
Q 1134 -91 817 281 
Q 500 653 500 1363 
z
" transform="scale(0.015625)"/>
       <path id="DejaVuSans-Bold-4f" d="M 2719 3878 
Q 2169 3878 1866 3472 
Q 1563 3066 1563 2328 
Q 1563 1594 1866 1187 
Q 2169 781 2719 781 
Q 3272 781 3575 1187 
Q 3878 1594 3878 2328 
Q 3878 3066 3575 3472 
Q 3272 3878 2719 3878 
z
M 2719 4750 
Q 3844 4750 4481 4106 
Q 5119 3463 5119 2328 
Q 5119 1197 4481 553 
Q 3844 -91 2719 -91 
Q 1597 -91 958 553 
Q 319 1197 319 2328 
Q 319 3463 958 4106 
Q 1597 4750 2719 4750 
z
" transform="scale(0.015625)"/>
       <path id="DejaVuSans-Bold-70" d="M 1656 506 
L 1656 -1331 
L 538 -1331 
L 538 3500 
L 1656 3500 
L 1656 2988 
Q 1888 3294 2169 3439 
Q 2450 3584 2816 3584 
Q 3463 3584 3878 3070 
Q 4294 2556 4294 1747 
Q 4294 938 3878 423 
Q 3463 -91 2816 -91 
Q 2450 -91 2169 54 
Q 1888 200 1656 506 
z
M 2400 2772 
Q 2041 2772 1848 2508 
Q 1656 2244 1656 1747 
Q 1656 1250 1848 986 
Q 2041 722 2400 722 
Q 2759 722 2948 984 
Q 3138 1247 3138 1747 
Q 3138 2247 2948 2509 
Q 2759 2772 2400 2772 
z
" transform="scale(0.015625)"/>
      </defs>
      <use xlink:href="#DejaVuSans-Bold-45"/>
      <use xlink:href="#DejaVuSans-Bold-71" x="68.310547"/>
      <use xlink:href="#DejaVuSans-Bold-75" x="139.892578"/>
      <use xlink:href="#DejaVuSans-Bold-61" x="211.083984"/>
      <use xlink:href="#DejaVuSans-Bold-6c" x="278.564453"/>
      <use xlink:href="#DejaVuSans-Bold-69" x="312.841797"/>
      <use xlink:href="#DejaVuSans-Bold-74" x="347.119141"/>
      <use xlink:href="#DejaVuSans-Bold-79" x="394.921875"/>
      <use xlink:href="#DejaVuSans-Bold-20" x="460.107422"/>
      <use xlink:href="#DejaVuSans-Bold-6f" x="494.921875"/>
      <use xlink:href="#DejaVuSans-Bold-66" x="563.623047"/>
      <use xlink:href="#DejaVuSans-Bold-20" x="607.128906"/>
      <use xlink:href="#DejaVuSans-Bold-4f" x="641.943359"/>
      <use xlink:href="#DejaVuSans-Bold-70" x="726.953125"/>
      <use xlink:href="#DejaVuSans-Bold-70" x="798.535156"/>
      <use xlink:href="#DejaVuSans-Bold-6f" x="870.117188"/>
      <use xlink:href="#DejaVuSans-Bold-72" x="938.818359"/>
      <use xlink:href="#DejaVuSans-Bold-74" x="988.134766"/>
      <use xlink:href="#DejaVuSans-Bold-75" x="1035.9375"/>
      <use xlink:href="#DejaVuSans-Bold-6e" x="1107.128906"/>
      <use xlink:href="#DejaVuSans-Bold-69" x="1178.320312"/>
      <use xlink:href="#DejaVuSans-Bold-74" x="1212.597656"/>
      <use xlink:href="#DejaVuSans-Bold-79" x="1260.400391"/>
      <use xlink:href="#DejaVuSans-Bold-20" x="1325.585938"/>
      <use xlink:href="#DejaVuSans-Bold-28" x="1360.400391"/>
      <use xlink:href="#DejaVuSans-Bold-2193" x="1406.103516"/>
      <use xlink:href="#DejaVuSans-Bold-29" x="1489.892578"/>
     </g>
    </g>
   </g>
   <g id="patch_8">
    <path d="M 493.13 373.96 
L 493.13 40.92 
" style="fill: none; stroke: #000000; stroke-width: 0.8; stroke-linejoin: miter; stroke-linecap: square"/>
   </g>
   <g id="patch_9">
    <path d="M 855.51 373.96 
L 855.51 40.92 
" style="fill: none; stroke: #000000; stroke-width: 0.8; stroke-linejoin: miter; stroke-linecap: square"/>
   </g>
   <g id="patch_10">
    <path d="M 493.13 373.96 
L 855.51 373.96 
" style="fill: none; stroke: #000000; stroke-width: 0.8; stroke-linejoin: miter; stroke-linecap: square"/>
   </g>
   <g id="patch_11">
    <path d="M 493.13 40.92 
L 855.51 40.92 
" style="fill: none; stroke: #000000; stroke-width: 0.8; stroke-linejoin: miter; stroke-linecap: square"/>
   </g>
   <g id="text_32">
    <!-- $\lambda_1$ vs Equality of Opportunity -->
    <g transform="translate(527.89 25.92) scale(0.18 -0.18)">
     <use xlink:href="#DejaVuSans-Oblique-3bb" transform="translate(0 0.015625)"/>
     <use xlink:href="#DejaVuSans-31" transform="translate(59.179688 -16.390625) scale(0.7)"/>
     <use xlink:href="#DejaVuSans-Bold-20" transform="translate(106.450195 0.015625)"/>
     <use xlink:href="#DejaVuSans-Bold-76" transform="translate(141.264648 0.015625)"/>
     <use xlink:href="#DejaVuSans-Bold-73" transform="translate(206.450195 0.015625)"/>
     <use xlink:href="#DejaVuSans-Bold-20" transform="translate(265.97168 0.015625)"/>
     <use xlink:href="#DejaVuSans-Bold-45" transform="translate(300.786133 0.015625)"/>
     <use xlink:href="#DejaVuSans-Bold-71" transform="translate(369.09668 0.015625)"/>
     <use xlink:href="#DejaVuSans-Bold-75" transform="translate(440.678711 0.015625)"/>
     <use xlink:href="#DejaVuSans-Bold-61" transform="translate(511.870117 0.015625)"/>
     <use xlink:href="#DejaVuSans-Bold-6c" transform="translate(579.350586 0.015625)"/>
     <use xlink:href="#DejaVuSans-Bold-69" transform="translate(613.62793 0.015625)"/>
     <use xlink:href="#DejaVuSans-Bold-74" transform="translate(647.905273 0.015625)"/>
     <use xlink:href="#DejaVuSans-Bold-79" transform="translate(695.708008 0.015625)"/>
     <use xlink:href="#DejaVuSans-Bold-20" transform="translate(760.893555 0.015625)"/>
     <use xlink:href="#DejaVuSans-Bold-6f" transform="translate(795.708008 0.015625)"/>
     <use xlink:href="#DejaVuSans-Bold-66" transform="translate(864.40918 0.015625)"/>
     <use xlink:href="#DejaVuSans-Bold-20" transform="translate(907.915039 0.015625)"/>
     <use xlink:href="#DejaVuSans-Bold-4f" transform="translate(942.729492 0.015625)"/>
     <use xlink:href="#DejaVuSans-Bold-70" transform="translate(1027.739258 0.015625)"/>
     <use xlink:href="#DejaVuSans-Bold-70" transform="translate(1099.321289 0.015625)"/>
     <use xlink:href="#DejaVuSans-Bold-6f" transform="translate(1170.90332 0.015625)"/>
     <use xlink:href="#DejaVuSans-Bold-72" transform="translate(1239.604492 0.015625)"/>
     <use xlink:href="#DejaVuSans-Bold-74" transform="translate(1288.920898 0.015625)"/>
     <use xlink:href="#DejaVuSans-Bold-75" transform="translate(1336.723633 0.015625)"/>
     <use xlink:href="#DejaVuSans-Bold-6e" transform="translate(1407.915039 0.015625)"/>
     <use xlink:href="#DejaVuSans-Bold-69" transform="translate(1479.106445 0.015625)"/>
     <use xlink:href="#DejaVuSans-Bold-74" transform="translate(1513.383789 0.015625)"/>
     <use xlink:href="#DejaVuSans-Bold-79" transform="translate(1561.186523 0.015625)"/>
    </g>
   </g>
  </g>
  <g id="axes_3">
   <g id="patch_12">
    <path d="M 922.82 373.96 
L 1285.2 373.96 
L 1285.2 40.92 
L 922.82 40.92 
z
" style="fill: #ffffff"/>
   </g>
   <g id="PathCollection_3">
    <defs>
     <path id="mf6667dbb7b" d="M 0 3 
C 0.795609 3 1.55874 2.683901 2.12132 2.12132 
C 2.683901 1.55874 3 0.795609 3 0 
C 3 -0.795609 2.683901 -1.55874 2.12132 -2.12132 
C 1.55874 -2.683901 0.795609 -3 0 -3 
C -0.795609 -3 -1.55874 -2.683901 -2.12132 -2.12132 
C -2.683901 -1.55874 -3 -0.795609 -3 0 
C -3 0.795609 -2.683901 1.55874 -2.12132 2.12132 
C -1.55874 2.683901 -0.795609 3 0 3 
z
" style="stroke: #0000ff"/>
    </defs>
    <g clip-path="url(#pc8dec833d4)">
     <use xlink:href="#mf6667dbb7b" x="939.291818" y="126.614176" style="fill: #0000ff; stroke: #0000ff"/>
     <use xlink:href="#mf6667dbb7b" x="961.254242" y="128.414237" style="fill: #0000ff; stroke: #0000ff"/>
     <use xlink:href="#mf6667dbb7b" x="983.216667" y="131.578011" style="fill: #0000ff; stroke: #0000ff"/>
     <use xlink:href="#mf6667dbb7b" x="1005.179091" y="135.17814" style="fill: #0000ff; stroke: #0000ff"/>
     <use xlink:href="#mf6667dbb7b" x="1027.141515" y="138.232809" style="fill: #0000ff; stroke: #0000ff"/>
     <use xlink:href="#mf6667dbb7b" x="1049.103939" y="142.923891" style="fill: #0000ff; stroke: #0000ff"/>
     <use xlink:href="#mf6667dbb7b" x="1071.066364" y="147.287721" style="fill: #0000ff; stroke: #0000ff"/>
     <use xlink:href="#mf6667dbb7b" x="1093.028788" y="153.615221" style="fill: #0000ff; stroke: #0000ff"/>
     <use xlink:href="#mf6667dbb7b" x="1114.991212" y="157.106246" style="fill: #0000ff; stroke: #0000ff"/>
     <use xlink:href="#mf6667dbb7b" x="1136.953636" y="161.197323" style="fill: #0000ff; stroke: #0000ff"/>
     <use xlink:href="#mf6667dbb7b" x="1158.916061" y="166.05206" style="fill: #0000ff; stroke: #0000ff"/>
     <use xlink:href="#mf6667dbb7b" x="1180.878485" y="172.652307" style="fill: #0000ff; stroke: #0000ff"/>
     <use xlink:href="#mf6667dbb7b" x="1202.840909" y="180.234415" style="fill: #0000ff; stroke: #0000ff"/>
     <use xlink:href="#mf6667dbb7b" x="1224.803333" y="186.889214" style="fill: #0000ff; stroke: #0000ff"/>
     <use xlink:href="#mf6667dbb7b" x="1246.765758" y="190.325694" style="fill: #0000ff; stroke: #0000ff"/>
     <use xlink:href="#mf6667dbb7b" x="1268.728182" y="192.834904" style="fill: #0000ff; stroke: #0000ff"/>
    </g>
   </g>
   <g id="matplotlib.axis_5">
    <g id="xtick_15">
     <g id="line2d_27">
      <g>
       <use xlink:href="#m5e17f799ea" x="939.291818" y="373.96" style="stroke: #000000; stroke-width: 0.8"/>
      </g>
     </g>
     <g id="text_33">
      <!-- 0 -->
      <g transform="translate(935.474318 390.078125) scale(0.12 -0.12)">
       <use xlink:href="#DejaVuSans-30"/>
      </g>
     </g>
    </g>
    <g id="xtick_16">
     <g id="line2d_28">
      <g>
       <use xlink:href="#m5e17f799ea" x="994.197879" y="373.96" style="stroke: #000000; stroke-width: 0.8"/>
      </g>
     </g>
     <g id="text_34">
      <!-- 1 -->
      <g transform="translate(990.380379 390.078125) scale(0.12 -0.12)">
       <use xlink:href="#DejaVuSans-31"/>
      </g>
     </g>
    </g>
    <g id="xtick_17">
     <g id="line2d_29">
      <g>
       <use xlink:href="#m5e17f799ea" x="1049.103939" y="373.96" style="stroke: #000000; stroke-width: 0.8"/>
      </g>
     </g>
     <g id="text_35">
      <!-- 2 -->
      <g transform="translate(1045.286439 390.078125) scale(0.12 -0.12)">
       <use xlink:href="#DejaVuSans-32"/>
      </g>
     </g>
    </g>
    <g id="xtick_18">
     <g id="line2d_30">
      <g>
       <use xlink:href="#m5e17f799ea" x="1104.01" y="373.96" style="stroke: #000000; stroke-width: 0.8"/>
      </g>
     </g>
     <g id="text_36">
      <!-- 3 -->
      <g transform="translate(1100.1925 390.078125) scale(0.12 -0.12)">
       <use xlink:href="#DejaVuSans-33"/>
      </g>
     </g>
    </g>
    <g id="xtick_19">
     <g id="line2d_31">
      <g>
       <use xlink:href="#m5e17f799ea" x="1158.916061" y="373.96" style="stroke: #000000; stroke-width: 0.8"/>
      </g>
     </g>
     <g id="text_37">
      <!-- 4 -->
      <g transform="translate(1155.098561 390.078125) scale(0.12 -0.12)">
       <use xlink:href="#DejaVuSans-34"/>
      </g>
     </g>
    </g>
    <g id="xtick_20">
     <g id="line2d_32">
      <g>
       <use xlink:href="#m5e17f799ea" x="1213.822121" y="373.96" style="stroke: #000000; stroke-width: 0.8"/>
      </g>
     </g>
     <g id="text_38">
      <!-- 5 -->
      <g transform="translate(1210.004621 390.078125) scale(0.12 -0.12)">
       <use xlink:href="#DejaVuSans-35"/>
      </g>
     </g>
    </g>
    <g id="xtick_21">
     <g id="line2d_33">
      <g>
       <use xlink:href="#m5e17f799ea" x="1268.728182" y="373.96" style="stroke: #000000; stroke-width: 0.8"/>
      </g>
     </g>
     <g id="text_39">
      <!-- 6 -->
      <g transform="translate(1264.910682 390.078125) scale(0.12 -0.12)">
       <use xlink:href="#DejaVuSans-36"/>
      </g>
     </g>
    </g>
    <g id="text_40">
     <!-- Bias Scaling Coefficient ($\lambda_1$) -->
     <g transform="translate(979.05 414.73375) scale(0.16 -0.16)">
      <use xlink:href="#DejaVuSans-Bold-42" transform="translate(0 0.015625)"/>
      <use xlink:href="#DejaVuSans-Bold-69" transform="translate(76.220703 0.015625)"/>
      <use xlink:href="#DejaVuSans-Bold-61" transform="translate(110.498047 0.015625)"/>
      <use xlink:href="#DejaVuSans-Bold-73" transform="translate(177.978516 0.015625)"/>
      <use xlink:href="#DejaVuSans-Bold-20" transform="translate(237.5 0.015625)"/>
      <use xlink:href="#DejaVuSans-Bold-53" transform="translate(272.314453 0.015625)"/>
      <use xlink:href="#DejaVuSans-Bold-63" transform="translate(344.335938 0.015625)"/>
      <use xlink:href="#DejaVuSans-Bold-61" transform="translate(403.613281 0.015625)"/>
      <use xlink:href="#DejaVuSans-Bold-6c" transform="translate(471.09375 0.015625)"/>
      <use xlink:href="#DejaVuSans-Bold-69" transform="translate(505.371094 0.015625)"/>
      <use xlink:href="#DejaVuSans-Bold-6e" transform="translate(539.648438 0.015625)"/>
      <use xlink:href="#DejaVuSans-Bold-67" transform="translate(610.839844 0.015625)"/>
      <use xlink:href="#DejaVuSans-Bold-20" transform="translate(682.421875 0.015625)"/>
      <use xlink:href="#DejaVuSans-Bold-43" transform="translate(717.236328 0.015625)"/>
      <use xlink:href="#DejaVuSans-Bold-6f" transform="translate(790.625 0.015625)"/>
      <use xlink:href="#DejaVuSans-Bold-65" transform="translate(859.326172 0.015625)"/>
      <use xlink:href="#DejaVuSans-Bold-66" transform="translate(927.148438 0.015625)"/>
      <use xlink:href="#DejaVuSans-Bold-66" transform="translate(970.654297 0.015625)"/>
      <use xlink:href="#DejaVuSans-Bold-69" transform="translate(1014.160156 0.015625)"/>
      <use xlink:href="#DejaVuSans-Bold-63" transform="translate(1048.4375 0.015625)"/>
      <use xlink:href="#DejaVuSans-Bold-69" transform="translate(1107.714844 0.015625)"/>
      <use xlink:href="#DejaVuSans-Bold-65" transform="translate(1141.992188 0.015625)"/>
      <use xlink:href="#DejaVuSans-Bold-6e" transform="translate(1209.814453 0.015625)"/>
      <use xlink:href="#DejaVuSans-Bold-74" transform="translate(1281.005859 0.015625)"/>
      <use xlink:href="#DejaVuSans-Bold-20" transform="translate(1328.808594 0.015625)"/>
      <use xlink:href="#DejaVuSans-Bold-28" transform="translate(1363.623047 0.015625)"/>
      <use xlink:href="#DejaVuSans-Oblique-3bb" transform="translate(1409.326172 0.015625)"/>
      <use xlink:href="#DejaVuSans-31" transform="translate(1468.505859 -16.390625) scale(0.7)"/>
      <use xlink:href="#DejaVuSans-Bold-29" transform="translate(1515.776367 0.015625)"/>
     </g>
    </g>
   </g>
   <g id="matplotlib.axis_6">
    <g id="ytick_13">
     <g id="line2d_34">
      <g>
       <use xlink:href="#m122b06e141" x="922.82" y="373.96" style="stroke: #000000; stroke-width: 0.8"/>
      </g>
     </g>
     <g id="text_41">
      <!-- 50 -->
      <g transform="translate(900.55 378.519063) scale(0.12 -0.12)">
       <use xlink:href="#DejaVuSans-35"/>
       <use xlink:href="#DejaVuSans-30" x="63.623047"/>
      </g>
     </g>
    </g>
    <g id="ytick_14">
     <g id="line2d_35">
      <g>
       <use xlink:href="#m122b06e141" x="922.82" y="307.352" style="stroke: #000000; stroke-width: 0.8"/>
      </g>
     </g>
     <g id="text_42">
      <!-- 60 -->
      <g transform="translate(900.55 311.911062) scale(0.12 -0.12)">
       <use xlink:href="#DejaVuSans-36"/>
       <use xlink:href="#DejaVuSans-30" x="63.623047"/>
      </g>
     </g>
    </g>
    <g id="ytick_15">
     <g id="line2d_36">
      <g>
       <use xlink:href="#m122b06e141" x="922.82" y="240.744" style="stroke: #000000; stroke-width: 0.8"/>
      </g>
     </g>
     <g id="text_43">
      <!-- 70 -->
      <g transform="translate(900.55 245.303062) scale(0.12 -0.12)">
       <defs>
        <path id="DejaVuSans-37" d="M 525 4666 
L 3525 4666 
L 3525 4397 
L 1831 0 
L 1172 0 
L 2766 4134 
L 525 4134 
L 525 4666 
z
" transform="scale(0.015625)"/>
       </defs>
       <use xlink:href="#DejaVuSans-37"/>
       <use xlink:href="#DejaVuSans-30" x="63.623047"/>
      </g>
     </g>
    </g>
    <g id="ytick_16">
     <g id="line2d_37">
      <g>
       <use xlink:href="#m122b06e141" x="922.82" y="174.136" style="stroke: #000000; stroke-width: 0.8"/>
      </g>
     </g>
     <g id="text_44">
      <!-- 80 -->
      <g transform="translate(900.55 178.695062) scale(0.12 -0.12)">
       <use xlink:href="#DejaVuSans-38"/>
       <use xlink:href="#DejaVuSans-30" x="63.623047"/>
      </g>
     </g>
    </g>
    <g id="ytick_17">
     <g id="line2d_38">
      <g>
       <use xlink:href="#m122b06e141" x="922.82" y="107.528" style="stroke: #000000; stroke-width: 0.8"/>
      </g>
     </g>
     <g id="text_45">
      <!-- 90 -->
      <g transform="translate(900.55 112.087062) scale(0.12 -0.12)">
       <defs>
        <path id="DejaVuSans-39" d="M 703 97 
L 703 672 
Q 941 559 1184 500 
Q 1428 441 1663 441 
Q 2288 441 2617 861 
Q 2947 1281 2994 2138 
Q 2813 1869 2534 1725 
Q 2256 1581 1919 1581 
Q 1219 1581 811 2004 
Q 403 2428 403 3163 
Q 403 3881 828 4315 
Q 1253 4750 1959 4750 
Q 2769 4750 3195 4129 
Q 3622 3509 3622 2328 
Q 3622 1225 3098 567 
Q 2575 -91 1691 -91 
Q 1453 -91 1209 -44 
Q 966 3 703 97 
z
M 1959 2075 
Q 2384 2075 2632 2365 
Q 2881 2656 2881 3163 
Q 2881 3666 2632 3958 
Q 2384 4250 1959 4250 
Q 1534 4250 1286 3958 
Q 1038 3666 1038 3163 
Q 1038 2656 1286 2365 
Q 1534 2075 1959 2075 
z
" transform="scale(0.015625)"/>
       </defs>
       <use xlink:href="#DejaVuSans-39"/>
       <use xlink:href="#DejaVuSans-30" x="63.623047"/>
      </g>
     </g>
    </g>
    <g id="ytick_18">
     <g id="line2d_39">
      <g>
       <use xlink:href="#m122b06e141" x="922.82" y="40.92" style="stroke: #000000; stroke-width: 0.8"/>
      </g>
     </g>
     <g id="text_46">
      <!-- 100 -->
      <g transform="translate(892.915 45.479062) scale(0.12 -0.12)">
       <use xlink:href="#DejaVuSans-31"/>
       <use xlink:href="#DejaVuSans-30" x="63.623047"/>
       <use xlink:href="#DejaVuSans-30" x="127.246094"/>
      </g>
     </g>
    </g>
    <g id="text_47">
     <!-- Accuracy (%) (↑) -->
     <g transform="translate(879.4625 283.0275) rotate(-90) scale(0.16 -0.16)">
      <defs>
       <path id="DejaVuSans-Bold-41" d="M 3419 850 
L 1538 850 
L 1241 0 
L 31 0 
L 1759 4666 
L 3194 4666 
L 4922 0 
L 3713 0 
L 3419 850 
z
M 1838 1716 
L 3116 1716 
L 2478 3572 
L 1838 1716 
z
" transform="scale(0.015625)"/>
       <path id="DejaVuSans-Bold-25" d="M 4959 1925 
Q 4738 1925 4616 1733 
Q 4494 1541 4494 1184 
Q 4494 825 4614 633 
Q 4734 441 4959 441 
Q 5184 441 5303 633 
Q 5422 825 5422 1184 
Q 5422 1541 5301 1733 
Q 5181 1925 4959 1925 
z
M 4959 2450 
Q 5541 2450 5875 2112 
Q 6209 1775 6209 1184 
Q 6209 594 5875 251 
Q 5541 -91 4959 -91 
Q 4378 -91 4042 251 
Q 3706 594 3706 1184 
Q 3706 1772 4042 2111 
Q 4378 2450 4959 2450 
z
M 2094 -91 
L 1403 -91 
L 4319 4750 
L 5013 4750 
L 2094 -91 
z
M 1453 4750 
Q 2034 4750 2367 4411 
Q 2700 4072 2700 3481 
Q 2700 2891 2367 2550 
Q 2034 2209 1453 2209 
Q 872 2209 539 2550 
Q 206 2891 206 3481 
Q 206 4072 539 4411 
Q 872 4750 1453 4750 
z
M 1453 4225 
Q 1228 4225 1106 4031 
Q 984 3838 984 3481 
Q 984 3122 1106 2926 
Q 1228 2731 1453 2731 
Q 1678 2731 1798 2926 
Q 1919 3122 1919 3481 
Q 1919 3838 1797 4031 
Q 1675 4225 1453 4225 
z
" transform="scale(0.015625)"/>
       <path id="DejaVuSans-Bold-2191" d="M 2466 4688 
L 2903 4688 
L 4131 3459 
L 3678 3006 
L 3059 3625 
L 3059 0 
L 2309 0 
L 2309 3625 
L 1691 3006 
L 1238 3459 
L 2466 4688 
z
" transform="scale(0.015625)"/>
      </defs>
      <use xlink:href="#DejaVuSans-Bold-41"/>
      <use xlink:href="#DejaVuSans-Bold-63" x="77.392578"/>
      <use xlink:href="#DejaVuSans-Bold-63" x="136.669922"/>
      <use xlink:href="#DejaVuSans-Bold-75" x="195.947266"/>
      <use xlink:href="#DejaVuSans-Bold-72" x="267.138672"/>
      <use xlink:href="#DejaVuSans-Bold-61" x="316.455078"/>
      <use xlink:href="#DejaVuSans-Bold-63" x="383.935547"/>
      <use xlink:href="#DejaVuSans-Bold-79" x="443.212891"/>
      <use xlink:href="#DejaVuSans-Bold-20" x="508.398438"/>
      <use xlink:href="#DejaVuSans-Bold-28" x="543.212891"/>
      <use xlink:href="#DejaVuSans-Bold-25" x="588.916016"/>
      <use xlink:href="#DejaVuSans-Bold-29" x="689.111328"/>
      <use xlink:href="#DejaVuSans-Bold-20" x="734.814453"/>
      <use xlink:href="#DejaVuSans-Bold-28" x="769.628906"/>
      <use xlink:href="#DejaVuSans-Bold-2191" x="815.332031"/>
      <use xlink:href="#DejaVuSans-Bold-29" x="899.121094"/>
     </g>
    </g>
   </g>
   <g id="patch_13">
    <path d="M 922.82 373.96 
L 922.82 40.92 
" style="fill: none; stroke: #000000; stroke-width: 0.8; stroke-linejoin: miter; stroke-linecap: square"/>
   </g>
   <g id="patch_14">
    <path d="M 1285.2 373.96 
L 1285.2 40.92 
" style="fill: none; stroke: #000000; stroke-width: 0.8; stroke-linejoin: miter; stroke-linecap: square"/>
   </g>
   <g id="patch_15">
    <path d="M 922.82 373.96 
L 1285.2 373.96 
" style="fill: none; stroke: #000000; stroke-width: 0.8; stroke-linejoin: miter; stroke-linecap: square"/>
   </g>
   <g id="patch_16">
    <path d="M 922.82 40.92 
L 1285.2 40.92 
" style="fill: none; stroke: #000000; stroke-width: 0.8; stroke-linejoin: miter; stroke-linecap: square"/>
   </g>
   <g id="text_48">
    <!-- $\lambda_1$ vs Accuracy (%) -->
    <g transform="translate(1010.77 25.92) scale(0.18 -0.18)">
     <use xlink:href="#DejaVuSans-Oblique-3bb" transform="translate(0 0.015625)"/>
     <use xlink:href="#DejaVuSans-31" transform="translate(59.179688 -16.390625) scale(0.7)"/>
     <use xlink:href="#DejaVuSans-Bold-20" transform="translate(106.450195 0.015625)"/>
     <use xlink:href="#DejaVuSans-Bold-76" transform="translate(141.264648 0.015625)"/>
     <use xlink:href="#DejaVuSans-Bold-73" transform="translate(206.450195 0.015625)"/>
     <use xlink:href="#DejaVuSans-Bold-20" transform="translate(265.97168 0.015625)"/>
     <use xlink:href="#DejaVuSans-Bold-41" transform="translate(300.786133 0.015625)"/>
     <use xlink:href="#DejaVuSans-Bold-63" transform="translate(378.178711 0.015625)"/>
     <use xlink:href="#DejaVuSans-Bold-63" transform="translate(437.456055 0.015625)"/>
     <use xlink:href="#DejaVuSans-Bold-75" transform="translate(496.733398 0.015625)"/>
     <use xlink:href="#DejaVuSans-Bold-72" transform="translate(567.924805 0.015625)"/>
     <use xlink:href="#DejaVuSans-Bold-61" transform="translate(617.241211 0.015625)"/>
     <use xlink:href="#DejaVuSans-Bold-63" transform="translate(684.72168 0.015625)"/>
     <use xlink:href="#DejaVuSans-Bold-79" transform="translate(743.999023 0.015625)"/>
     <use xlink:href="#DejaVuSans-Bold-20" transform="translate(809.18457 0.015625)"/>
     <use xlink:href="#DejaVuSans-Bold-28" transform="translate(843.999023 0.015625)"/>
     <use xlink:href="#DejaVuSans-Bold-25" transform="translate(889.702148 0.015625)"/>
     <use xlink:href="#DejaVuSans-Bold-29" transform="translate(989.897461 0.015625)"/>
    </g>
   </g>
  </g>
 </g>
 <defs>
  <clipPath id="p92f4d9895f">
   <rect x="63.44" y="40.92" width="362.38" height="333.04"/>
  </clipPath>
  <clipPath id="p9a7c22a669">
   <rect x="493.13" y="40.92" width="362.38" height="333.04"/>
  </clipPath>
  <clipPath id="pc8dec833d4">
   <rect x="922.82" y="40.92" width="362.38" height="333.04"/>
  </clipPath>
 </defs>
</svg>
